<svg width="81" height="29" viewBox="0 0 81 29" fill="none" xmlns="http://www.w3.org/2000/svg">
<path d="M13.4055 12.1582H16.3198L19.0112 20.0782L18.6169 19.9067L20.9655 14.061L22.1141 17.4725L18.4798 25.2725L13.4055 12.1582ZM19.7312 12.1582H22.1998L25.3026 19.821L24.8569 19.7525L27.1712 12.1582H29.8455L24.9769 25.2382L19.7312 12.1582ZM30.2375 18.3982C30.2375 17.5296 30.4032 16.7067 30.7347 15.9296C31.0661 15.1525 31.5232 14.4667 32.1061 13.8725C32.7004 13.2667 33.3861 12.7925 34.1632 12.4496C34.9404 12.1067 35.7747 11.9353 36.6661 11.9353C37.5461 11.9353 38.3747 12.1067 39.1518 12.4496C39.9289 12.7925 40.6147 13.2667 41.2089 13.8725C41.8147 14.4667 42.2832 15.1525 42.6147 15.9296C42.9575 16.7067 43.1289 17.5296 43.1289 18.3982C43.1289 19.2896 42.9575 20.1239 42.6147 20.901C42.2832 21.6782 41.8147 22.3639 41.2089 22.9582C40.6147 23.541 39.9289 23.9982 39.1518 24.3296C38.3747 24.661 37.5461 24.8267 36.6661 24.8267C35.7747 24.8267 34.9404 24.661 34.1632 24.3296C33.3861 23.9982 32.7004 23.541 32.1061 22.9582C31.5232 22.3639 31.0661 21.6782 30.7347 20.901C30.4032 20.1239 30.2375 19.2896 30.2375 18.3982ZM32.8089 18.3982C32.8089 18.9582 32.9061 19.4839 33.1004 19.9753C33.3061 20.4553 33.5861 20.8839 33.9404 21.261C34.3061 21.6267 34.7232 21.9125 35.1918 22.1182C35.6718 22.3239 36.1918 22.4267 36.7518 22.4267C37.2889 22.4267 37.7861 22.3239 38.2432 22.1182C38.7118 21.9125 39.1175 21.6267 39.4604 21.261C39.8032 20.8839 40.0718 20.4553 40.2661 19.9753C40.4604 19.4839 40.5575 18.9582 40.5575 18.3982C40.5575 17.8267 40.4547 17.2953 40.2489 16.8039C40.0547 16.3125 39.7804 15.8839 39.4261 15.5182C39.0832 15.141 38.6775 14.8496 38.2089 14.6439C37.7404 14.4382 37.2318 14.3353 36.6832 14.3353C36.1347 14.3353 35.6261 14.4382 35.1575 14.6439C34.6889 14.8496 34.2775 15.141 33.9232 15.5182C33.5689 15.8839 33.2947 16.3125 33.1004 16.8039C32.9061 17.2953 32.8089 17.8267 32.8089 18.3982ZM49.43 12.0725C50.2186 12.0725 50.9214 12.1753 51.5386 12.381C52.1557 12.5753 52.67 12.861 53.0814 13.2382C53.5043 13.6039 53.8243 14.0496 54.0414 14.5753C54.2586 15.0896 54.3672 15.6725 54.3672 16.3239C54.3672 16.8382 54.2872 17.3525 54.1272 17.8667C53.9786 18.381 53.7272 18.8496 53.3729 19.2725C53.03 19.6953 52.5729 20.0382 52.0014 20.301C51.43 20.5525 50.7214 20.6782 49.8757 20.6782H48.0929V24.6896H45.6072V12.0725H49.43ZM49.8586 18.2782C50.2357 18.2782 50.55 18.2153 50.8014 18.0896C51.0529 17.9639 51.2472 17.8039 51.3843 17.6096C51.5329 17.4153 51.6357 17.2153 51.6929 17.0096C51.7614 16.7925 51.7957 16.5925 51.7957 16.4096C51.7957 16.2725 51.7729 16.101 51.7272 15.8953C51.6929 15.6782 51.6129 15.461 51.4872 15.2439C51.3614 15.0267 51.1672 14.8439 50.9043 14.6953C50.6529 14.5467 50.31 14.4725 49.8757 14.4725H48.0929V18.2782H49.8586ZM52.19 19.821L55.31 24.6896H52.4129L49.2243 19.8896L52.19 19.821ZM57.3594 12.0725H59.8451V22.2896H65.7765V24.6896H57.3594V12.0725ZM68.3415 24.6896V12.0725H72.113C73.3815 12.0725 74.4615 12.261 75.353 12.6382C76.2444 13.0153 76.9587 13.5182 77.4958 14.1467C78.0444 14.7753 78.4444 15.4782 78.6958 16.2553C78.9472 17.0325 79.073 17.8153 79.073 18.6039C79.073 19.541 78.9015 20.3867 78.5587 21.141C78.2272 21.8839 77.7701 22.5239 77.1872 23.061C76.6044 23.5867 75.9301 23.9925 75.1644 24.2782C74.3987 24.5525 73.5872 24.6896 72.7301 24.6896H68.3415ZM70.8272 22.2896H72.3015C72.9301 22.2896 73.5015 22.2096 74.0158 22.0496C74.5301 21.8782 74.9701 21.6325 75.3358 21.3125C75.713 20.9925 75.9987 20.5925 76.193 20.1125C76.3987 19.621 76.5015 19.061 76.5015 18.4325C76.5015 17.6096 76.3644 16.941 76.0901 16.4267C75.8272 15.901 75.4958 15.4953 75.0958 15.2096C74.7072 14.9239 74.3072 14.7296 73.8958 14.6267C73.4844 14.5125 73.1358 14.4553 72.8501 14.4553H70.8272V22.2896Z" fill="white"/>
<path d="M14.6437 4.4096L14.7923 5.78103L14.758 5.57531C14.9028 5.27817 15.1009 5.02674 15.3523 4.82103C15.6037 4.60769 15.8513 4.44388 16.0951 4.3296C16.3466 4.21531 16.5371 4.15817 16.6666 4.15817L16.5866 5.75817C16.2132 5.71246 15.8932 5.77341 15.6266 5.94103C15.3599 6.10865 15.1542 6.3296 15.0094 6.60388C14.8647 6.87817 14.7923 7.16008 14.7923 7.4496V9.40388H13.2037V4.4096H14.6437ZM17.2794 6.84388C17.2794 6.33341 17.3975 5.87627 17.6337 5.47246C17.8775 5.06865 18.2166 4.75246 18.6509 4.52388C19.0851 4.28769 19.5842 4.1696 20.148 4.1696C20.7194 4.1696 21.2147 4.28769 21.6337 4.52388C22.0528 4.75246 22.3728 5.06865 22.5937 5.47246C22.8223 5.87627 22.9366 6.33341 22.9366 6.84388C22.9366 7.35436 22.8223 7.81531 22.5937 8.22674C22.3728 8.63055 22.0528 8.95055 21.6337 9.18674C21.2147 9.42293 20.7118 9.54103 20.1251 9.54103C19.5766 9.54103 19.0851 9.43436 18.6509 9.22103C18.2242 9.00769 17.889 8.69912 17.6451 8.29531C17.4013 7.8915 17.2794 7.40769 17.2794 6.84388ZM18.8909 6.85531C18.8909 7.11436 18.9442 7.35055 19.0509 7.56388C19.1575 7.7696 19.3023 7.93341 19.4851 8.05531C19.668 8.17722 19.8737 8.23817 20.1023 8.23817C20.3537 8.23817 20.5709 8.17722 20.7537 8.05531C20.9366 7.93341 21.0775 7.7696 21.1766 7.56388C21.2756 7.35055 21.3251 7.11436 21.3251 6.85531C21.3251 6.58865 21.2756 6.35246 21.1766 6.14674C21.0775 5.94103 20.9366 5.77722 20.7537 5.65531C20.5709 5.53341 20.3537 5.47246 20.1023 5.47246C19.8737 5.47246 19.668 5.53341 19.4851 5.65531C19.3023 5.77722 19.1575 5.94103 19.0509 6.14674C18.9442 6.35246 18.8909 6.58865 18.8909 6.85531ZM25.8084 9.64388C25.3589 9.64388 24.9818 9.50674 24.677 9.23246C24.3723 8.95055 24.2123 8.58865 24.197 8.14674V4.4096H25.797V7.55246C25.8123 7.77341 25.8694 7.95246 25.9684 8.0896C26.0675 8.21912 26.2351 8.28388 26.4713 8.28388C26.7075 8.28388 26.9094 8.20388 27.077 8.04388C27.2523 7.88388 27.3856 7.66674 27.477 7.39246C27.5761 7.11055 27.6256 6.79436 27.6256 6.44388V4.4096H29.2256V9.40388H27.7742L27.6484 8.4896L27.6713 8.59246C27.557 8.79817 27.4123 8.98103 27.237 9.14103C27.0618 9.30103 26.8523 9.42293 26.6084 9.50674C26.3723 9.59817 26.1056 9.64388 25.8084 9.64388ZM32.3226 4.4096L32.4483 5.30103L32.4254 5.22103C32.6007 4.90865 32.8483 4.65722 33.1683 4.46674C33.4883 4.26865 33.8807 4.1696 34.3454 4.1696C34.8178 4.1696 35.2102 4.31055 35.5226 4.59246C35.8426 4.86674 36.0064 5.22484 36.014 5.66674V9.40388H34.414V6.26103C34.4064 6.04008 34.3454 5.86484 34.2311 5.73531C34.1245 5.59817 33.9416 5.5296 33.6826 5.5296C33.4387 5.5296 33.2254 5.6096 33.0426 5.7696C32.8597 5.9296 32.7187 6.14674 32.6197 6.42103C32.5207 6.69531 32.4711 7.0115 32.4711 7.3696V9.40388H30.8711V4.4096H32.3226ZM39.6911 9.54103C39.2264 9.54103 38.8111 9.43436 38.4454 9.22103C38.0797 9.00008 37.7902 8.68388 37.5768 8.27246C37.3711 7.86103 37.2683 7.37341 37.2683 6.8096C37.2683 6.24579 37.3826 5.76579 37.6111 5.3696C37.8397 4.97341 38.1521 4.67246 38.5483 4.46674C38.9445 4.26103 39.394 4.15817 39.8968 4.15817C40.2168 4.15817 40.5216 4.20769 40.8111 4.30674C41.1083 4.40579 41.3559 4.55817 41.554 4.76388V5.26674V0.386741H43.1426V9.40388H41.5426V8.43246L41.6683 8.77531C41.4092 8.98865 41.1197 9.1715 40.7997 9.32388C40.4797 9.46865 40.1102 9.54103 39.6911 9.54103ZM40.2168 8.19246C40.4302 8.19246 40.6168 8.16579 40.7768 8.11246C40.9445 8.0515 41.0892 7.96769 41.2111 7.86103C41.3407 7.74674 41.4511 7.60579 41.5426 7.43817V6.21531C41.4816 6.04769 41.3864 5.90674 41.2568 5.79246C41.1349 5.67055 40.9826 5.57912 40.7997 5.51817C40.6245 5.4496 40.4302 5.41531 40.2168 5.41531C39.9807 5.41531 39.7597 5.47627 39.554 5.59817C39.3559 5.71246 39.1959 5.87246 39.074 6.07817C38.9521 6.28388 38.8911 6.52008 38.8911 6.78674C38.8911 7.05341 38.9521 7.29341 39.074 7.50674C39.1959 7.72008 39.3559 7.88769 39.554 8.0096C39.7597 8.1315 39.9807 8.19246 40.2168 8.19246ZM48.9736 2.21531H50.5736V4.38674H51.7851V5.63246H50.5736V9.40388H48.9736V5.63246H48.1965V4.38674H48.9736V2.21531ZM53.0028 9.40388V0.386741H54.5685V5.41531L54.5571 5.22103C54.7323 4.90865 54.98 4.65722 55.3 4.46674C55.62 4.26865 56.0123 4.1696 56.4771 4.1696C56.9495 4.1696 57.3419 4.31055 57.6543 4.59246C57.9743 4.86674 58.1381 5.22484 58.1457 5.66674V9.40388H56.5457V6.26103C56.5381 6.04008 56.4771 5.86484 56.3628 5.73531C56.2562 5.59817 56.0733 5.5296 55.8143 5.5296C55.5704 5.5296 55.3571 5.6096 55.1743 5.7696C54.9914 5.9296 54.8504 6.14674 54.7514 6.42103C54.6523 6.69531 54.6028 7.0115 54.6028 7.3696V9.40388H53.0028ZM62.2457 9.54103C61.6362 9.54103 61.1181 9.42674 60.6914 9.19817C60.2723 8.9696 59.9523 8.65341 59.7314 8.2496C59.5104 7.84579 59.4 7.38103 59.4 6.85531C59.4 6.35246 59.5295 5.89912 59.7885 5.49531C60.0476 5.0915 60.3943 4.7715 60.8285 4.53531C61.2628 4.2915 61.7466 4.1696 62.28 4.1696C62.9962 4.1696 63.5828 4.37912 64.04 4.79817C64.5047 5.2096 64.8057 5.80769 64.9428 6.59246L61.0571 7.82674L60.7028 6.95817L63.5143 6.0096L63.1828 6.15817C63.1219 5.96008 63.0114 5.78865 62.8514 5.64388C62.699 5.4915 62.4666 5.41531 62.1543 5.41531C61.9181 5.41531 61.7085 5.47246 61.5257 5.58674C61.3504 5.69341 61.2133 5.8496 61.1143 6.05531C61.0228 6.25341 60.9771 6.4896 60.9771 6.76388C60.9771 7.07627 61.0343 7.33912 61.1485 7.55246C61.2628 7.75817 61.419 7.91436 61.6171 8.02103C61.8152 8.12769 62.0362 8.18103 62.28 8.18103C62.4552 8.18103 62.6228 8.15055 62.7828 8.0896C62.9504 8.02865 63.1143 7.94865 63.2743 7.8496L63.9828 9.03817C63.7162 9.19055 63.4266 9.31246 63.1143 9.40388C62.8095 9.49531 62.52 9.54103 62.2457 9.54103Z" fill="white"/>
<g clip-path="url(#clip0_234_1511)">
<path d="M7.16567 1.19429V7.76294" stroke="white" stroke-width="0.952381" stroke-linecap="round" stroke-linejoin="round"/>
<path d="M7.16583 1.19429L11.0473 9.25581L7.16583 7.76294L3.28436 9.25581L7.16583 1.19429Z" stroke="white" stroke-width="1.42857" stroke-linecap="round" stroke-linejoin="round"/>
</g>
<defs>
<clipPath id="clip0_234_1511">
<rect width="10.134" height="10.134" fill="white" transform="translate(0 7.16579) rotate(-45)"/>
</clipPath>
</defs>
</svg>
